<svg xmlns="http://www.w3.org/2000/svg" width="120" height="27" viewBox="0 0 120 27" fill="none"><path d="M119.834 20.8386H103.774V20.2947H119.834V20.8386ZM111.832 17.7926L113.356 16.324L113.955 16.9223L112.322 18.2821C112.213 18.4453 112.104 18.7173 111.995 18.8805H110.797C110.99 18.3988 111.36 18.0094 111.832 17.7926ZM106.714 8.54592C106.66 8.54592 105.462 8.87227 105.462 8.87227C105.183 8.98309 104.91 9.11022 104.646 9.25302C104.373 9.41619 104.101 9.68816 104.101 9.85133L105.19 10.1233C105.339 9.94679 105.503 9.78304 105.68 9.63376L105.952 9.52498L106.823 8.60031C106.878 8.54592 106.878 8.49152 106.687 8.54592H106.714ZM114.064 11.4831C113.401 10.7597 112.783 9.99679 112.213 9.19863C112.623 8.18179 112.773 7.07874 112.648 5.98948C112.426 5.58846 112.171 5.20642 111.886 4.84724C111.777 4.68406 111.287 4.14014 111.07 4.14014C111.015 4.14014 110.961 4.14014 110.961 4.19453L111.015 4.79284C110.307 5.22798 109.491 5.77191 108.783 6.31583C108.769 6.53489 108.787 6.75481 108.837 6.96854C108.952 7.0611 109.081 7.13458 109.219 7.18611C109.703 7.06923 110.194 6.97844 110.688 6.91415L109.763 8.27395L108.674 9.03545L107.368 8.60031C107.259 8.60031 107.204 8.60031 107.15 8.6547L106.17 9.68816C106.137 9.71405 106.11 9.74701 106.091 9.78465C106.072 9.82229 106.062 9.86365 106.061 9.90573L106.007 11.048V11.4287C105.989 11.8768 106.123 12.3177 106.388 12.6797L106.986 11.7551C106.863 11.5524 106.772 11.3324 106.714 11.1024V10.1233L107.313 9.68816L108.946 10.8304C109.194 11.2923 109.486 11.7294 109.817 12.1358C110.543 12.7696 111.327 13.3341 112.158 13.822C112.228 14.2482 112.337 14.667 112.485 15.073L114.445 17.0855L113.302 18.5541C113.081 18.6702 112.895 18.8416 112.762 19.0514C112.628 19.2613 112.551 19.5023 112.539 19.7507H113.9L114.064 18.9892L115.697 17.1943C115.806 17.0855 115.806 17.0311 115.751 16.9223L115.316 15.3994C115.729 14.9293 115.978 14.3373 116.024 13.7132C116.024 12.2446 114.554 11.8639 114.064 11.4559V11.4831ZM116.514 13.8764C116.414 13.5225 116.286 13.177 116.133 12.8429C116.133 12.8429 116.187 12.7885 116.35 12.8429C116.514 12.8973 117.33 13.4956 117.33 13.4956C117.766 14.0939 118.038 16.7048 118.038 17.6294C117.561 17.4302 117.12 17.1546 116.731 16.8136L116.514 13.8764ZM74.812 13.2781C74.812 12.299 74.4854 11.5375 73.6688 11.5375C72.8522 11.5375 72.4711 12.299 72.4711 13.2781V19.7507H73.451V20.7842H67.9525V19.7507H68.9869V10.8304H67.9525V9.82414H72.2533V11.5103H72.3078C72.5496 10.9458 72.9518 10.4645 73.4647 10.1261C73.9776 9.7877 74.5785 9.60707 75.1931 9.60657C75.8711 9.56593 76.5403 9.77649 77.0727 10.198C77.605 10.6195 77.9631 11.2223 78.0785 11.891C78.1844 12.4836 78.239 13.0841 78.2418 13.686V19.7779H79.5484V20.8114H74.7576L74.812 13.2509M52.5458 13.2509C52.5458 12.2718 52.2191 11.5103 51.4025 11.5103C50.5859 11.5103 50.2048 12.2718 50.2048 13.2509V19.7235H51.1848V20.757H45.6863V19.7235H46.7206V10.8304H45.6863V9.82414H49.9871V11.5103H50.0415C50.2833 10.9458 50.6856 10.4645 51.1984 10.1261C51.7113 9.7877 52.3123 9.60707 52.9269 9.60657C53.6049 9.56593 54.2741 9.77649 54.8064 10.198C55.3388 10.6195 55.6969 11.2223 55.8122 11.891C55.9182 12.4836 55.9728 13.0841 55.9756 13.686V19.7779H57.2821V20.8114H52.4914L52.5458 13.2509ZM84.2847 10.8032V18.9077C84.2764 19.0026 84.289 19.0982 84.3216 19.1878C84.3543 19.2773 84.4061 19.3587 84.4736 19.4261C84.541 19.4935 84.6224 19.5453 84.7121 19.5779C84.8017 19.6105 84.8974 19.6231 84.9924 19.6148C85.2142 19.6092 85.4341 19.5726 85.6457 19.506V20.485C84.9903 20.8188 84.2566 20.9692 83.5225 20.9202C81.8349 20.9202 80.8005 20.1043 80.8005 18.3093V10.8304H79.6573V10.1233C80.9638 9.08984 82.4882 7.89321 83.6859 6.91415H84.3392V9.82414H85.9996V10.8032H84.2847ZM15.635 4.14014C15.635 4.14014 18.3026 6.80536 19.5003 8.16517V9.19863C17.9524 7.78375 15.9363 6.98962 13.8385 6.96854C8.88435 6.96854 5.78123 10.7216 5.78123 15.345C5.78123 19.9683 8.72103 23.667 13.8385 23.667C14.9063 23.6759 15.9647 23.4657 16.948 23.0494C17.9312 22.633 18.8185 22.0194 19.5547 21.2465V22.2256C18.0304 24.3469 15.1995 25.7067 11.6608 25.7067C5.3457 25.7611 0.990448 21.1921 0.990448 15.3722C1.00037 13.9852 1.28474 12.6138 1.82718 11.337C2.36962 10.0603 3.15943 8.90329 4.15115 7.93267C5.14287 6.96205 6.31692 6.19697 7.60573 5.68145C8.89455 5.16592 10.2727 4.91014 11.6608 4.92883C13.0119 4.93299 14.3537 5.15335 15.635 5.58153V4.14014ZM66.3193 17.9014C66.0271 18.2469 65.6588 18.52 65.2431 18.6993C64.8275 18.8787 64.3759 18.9593 63.9239 18.9349C62.944 18.9349 61.3652 18.3909 61.3107 15.8345H67.1903C67.1903 15.6169 67.2448 15.2362 67.2448 15.0186C67.2448 11.9182 65.9926 9.63376 62.6718 9.63376C59.3509 9.63376 57.6632 12.1902 57.6632 15.345C57.6632 18.4997 59.3509 21.0018 62.6718 21.0018C63.5615 21.0493 64.4453 20.8317 65.211 20.3765C65.9767 19.9214 66.5898 19.2492 66.9726 18.4453L66.3193 17.9014ZM61.2563 14.7466C61.2563 11.8639 61.4741 10.776 62.454 10.776C63.4339 10.776 63.6517 11.8095 63.7061 14.7466H61.2563ZM12.7496 15.2906C12.7496 11.9182 13.0763 10.4496 14.2195 10.4496C15.3628 10.4496 15.6894 11.9182 15.6894 15.2906C15.6894 18.6629 15.3628 20.1315 14.2195 20.1315C13.0763 20.1315 12.7496 18.6629 12.7496 15.2906ZM8.66659 15.345C8.66659 18.6629 10.6809 21.3825 14.2195 21.3825C17.7582 21.3825 19.7725 18.6629 19.7725 15.345C19.7725 12.027 17.7582 9.28021 14.2195 9.28021C10.6809 9.28021 8.66659 11.9998 8.66659 15.3178M27.5031 13.2509C27.5031 12.2718 27.1764 11.5103 26.3598 11.5103C25.5432 11.5103 25.1621 12.2718 25.1621 13.2509V19.7235H26.1148V20.757H20.6435V19.7235H21.6779V10.8304H20.6435V9.82414H24.9444V11.5103H24.9988C25.2406 10.9458 25.6428 10.4645 26.1557 10.1261C26.6686 9.7877 27.2695 9.60707 27.8842 9.60657C28.5622 9.56593 29.2314 9.77649 29.7637 10.198C30.2961 10.6195 30.6542 11.2223 30.7695 11.891C30.8754 12.4836 30.9301 13.0841 30.9328 13.686V19.7779H32.2394V20.8114H27.4486V13.2781L27.5031 13.2509ZM39.97 6.88695C39.97 7.86601 40.841 8.51872 42.0932 8.51872C43.3453 8.51872 44.2164 7.86601 44.2164 6.88695C44.2164 5.90789 43.3453 5.25518 42.0932 5.25518C40.841 5.25518 39.97 5.96228 39.97 6.88695ZM36.9757 10.8032V18.9077C36.9674 19.0026 36.98 19.0982 37.0127 19.1878C37.0453 19.2773 37.0972 19.3587 37.1646 19.4261C37.2321 19.4935 37.3135 19.5453 37.4031 19.5779C37.4928 19.6105 37.5885 19.6231 37.6835 19.6148C37.9053 19.6092 38.1252 19.5726 38.3368 19.506V20.485C37.6813 20.8188 36.9476 20.9692 36.2136 20.9202C34.5259 20.9202 33.4915 20.1043 33.4915 18.3093V10.8304H32.3483V10.1233C33.6549 9.08984 35.1792 7.89321 36.3769 6.91415H37.003V9.82414H38.364V10.8032H36.9757ZM101.216 19.7779H102.577V20.8114H97.7316V6.80536H96.5339V5.77191H101.243V19.8051L101.216 19.7779ZM91.9064 15.3722C91.6911 15.2019 91.4171 15.1237 91.1442 15.1546C90.1099 15.1546 89.8921 16.188 89.8921 17.2215C89.8921 18.255 90.2188 19.0708 91.0898 19.0708C91.2421 19.0855 91.3957 19.0636 91.5378 19.0068C91.6799 18.95 91.8063 18.8601 91.9064 18.7445V15.3722ZM92.0153 19.506C91.7032 19.9836 91.2746 20.3739 90.7698 20.6404C90.265 20.9068 89.7007 21.0405 89.1299 21.029C87.3334 21.029 86.2446 19.506 86.2446 17.6566C86.2446 15.4809 87.8234 14.0667 90.3276 14.0667C90.8625 14.0477 91.3967 14.1213 91.9064 14.2843V13.5772C91.9296 13.3071 91.8935 13.0351 91.8004 12.7804C91.7074 12.5257 91.5598 12.2944 91.3679 12.1027C91.176 11.911 90.9445 11.7635 90.6896 11.6706C90.4347 11.5776 90.1625 11.5415 89.8921 11.5647C89.4005 11.5657 88.9163 11.6848 88.4805 11.912C88.0446 12.1392 87.6699 12.4678 87.3878 12.8701L86.789 12.1086C87.2465 11.3599 87.8852 10.7384 88.6464 10.3011C89.4075 9.86386 90.2665 9.62501 91.1442 9.60657C93.8118 9.60657 95.3906 11.1839 95.3906 13.5772V19.7779H96.5339V20.8114H92.0697L92.0153 19.506ZM39.3711 20.8114V19.7779H40.3511V10.8304H39.3711V9.82414H43.8353V19.7779H44.8697V20.8114H39.3711Z" fill="black"></path></svg>