<svg xmlns="http://www.w3.org/2000/svg" width="78" height="25" viewBox="0 0 78 25" fill="none"><g clip-path="url(#clip0_63_25)"><path fill-rule="evenodd" clip-rule="evenodd" d="M19.8717 0.0136719H77.9757V24.9863H25.6407L13.1773 12.4408H7.21118L19.8717 0.0136719Z" fill="#28539C"></path><path fill-rule="evenodd" clip-rule="evenodd" d="M18.2963 24.9863H0.024292V12.4408H5.81332L18.2963 24.9863ZM0.024292 0.0136719H12.5073L0.024292 12.2637V0.0136719Z" fill="#CF4037"></path><path fill-rule="evenodd" clip-rule="evenodd" d="M25.5425 3.55862H27.4916V7.2024L31.1344 3.55862H33.6939L29.8149 7.2024L33.8906 12.402H31.3507L28.4366 8.54147L27.4916 9.44752V12.402H25.5425V3.55862ZM35.0131 3.55862H37.0214V8.99408C37.0214 9.60464 37.1001 10.0381 37.2576 10.3336C37.4938 10.8258 38.0059 11.0625 38.813 11.0625C39.6205 11.0625 40.1325 10.8262 40.3684 10.3336C40.5263 10.0381 40.605 9.60464 40.605 8.99408V3.55862H42.6125V8.99408C42.6125 9.93972 42.4554 10.6682 42.1404 11.2C41.5692 12.1457 40.4471 12.6379 38.8126 12.6379C37.178 12.6379 36.056 12.1457 35.4651 11.2C35.1697 10.6682 35.0122 9.93972 35.0122 8.99408V3.55862H35.0131ZM50.7839 3.55862H53.6397V12.4016H51.7885V6.4143V5.70538C51.7885 5.3903 51.8081 5.154 51.8081 4.97687L50.0169 12.402H48.0873L46.3149 4.97687V12.402H44.4837V3.55862H47.3578L49.0706 10.5107L50.7839 3.55862ZM55.4509 12.402V3.55862H57.4196V6.9265H61.1216V3.55862H63.0703V12.402H61.1216V8.4627H57.4196V12.402H55.4509ZM72.2655 11.6139C71.5372 12.3032 70.5134 12.6575 69.1543 12.6575C67.796 12.6575 66.7723 12.3032 66.0636 11.6139C65.0986 10.767 64.6061 9.56547 64.6061 7.97009C64.6061 6.35512 65.0986 5.13399 66.0636 4.32671C66.7723 3.63738 67.796 3.3023 69.1543 3.28271C70.5134 3.28271 71.5372 3.63738 72.2655 4.32671C73.2113 5.13441 73.683 6.35512 73.683 7.97009C73.683 9.56547 73.2109 10.767 72.2655 11.6139Z" fill="white"></path><path fill-rule="evenodd" clip-rule="evenodd" d="M71.025 10.2744C71.4775 9.74266 71.7142 8.97456 71.7142 7.97015C71.7142 6.98533 71.4775 6.21723 71.025 5.66585C70.5521 5.13447 69.9417 4.85815 69.1542 4.85815C68.3672 4.85815 67.7564 5.13406 67.2843 5.66585C66.8114 6.19764 66.5756 6.96574 66.5756 7.97015C66.5756 8.97456 66.8114 9.74266 67.2843 10.2744C67.7564 10.8062 68.3676 11.0821 69.1542 11.0821C69.9421 11.0821 70.5521 10.8062 71.025 10.2744Z" fill="#28539C"></path><path fill-rule="evenodd" clip-rule="evenodd" d="M55.7658 15.8874L55.4113 16.7934H53.58L51.8672 20.969H50.5872L52.3001 16.7934H50.4689L50.8434 15.8874H55.7658ZM55.5883 20.969H54.3279L56.4154 15.8874H57.6758L55.5883 20.969ZM62.7944 16.0053C62.9915 16.1037 63.1494 16.2225 63.2477 16.3796C63.3265 16.4975 63.3656 16.6359 63.3852 16.793C63.3852 16.951 63.3656 17.1285 63.2673 17.3244C63.169 17.5807 63.0111 17.817 62.7552 18.0537C62.5194 18.2896 62.224 18.4476 61.8494 18.5463C62.0853 18.6447 62.2236 18.7631 62.2628 18.9394C62.3223 19.1169 62.2627 19.3928 62.1253 19.7471L61.9869 20.0825C61.8886 20.3184 61.8298 20.4764 61.8103 20.5547C61.7898 20.6931 61.8298 20.7915 61.9282 20.8502L61.8686 20.969H60.4707C60.4911 20.8707 60.4911 20.7719 60.5107 20.6931C60.5303 20.5547 60.5695 20.4172 60.6286 20.2601L60.8257 19.7871C60.9436 19.472 60.9632 19.2557 60.8649 19.1365C60.7861 19.0381 60.5499 18.9794 60.1757 18.9794H58.8566L58.0491 20.9686H56.8087L58.8962 15.887H61.869C62.3023 15.8874 62.5977 15.9274 62.7944 16.0053Z" fill="white"></path><path fill-rule="evenodd" clip-rule="evenodd" d="M59.7624 16.7739L59.2115 18.1326H60.6486C60.944 18.1326 61.1607 18.113 61.3182 18.0542C61.6136 17.9559 61.8302 17.7587 61.9482 17.4828C62.0661 17.1678 62.0269 16.9706 61.8302 16.8527C61.7123 16.7931 61.5152 16.7739 61.2394 16.7739H59.7624Z" fill="#28539C"></path><path fill-rule="evenodd" clip-rule="evenodd" d="M69.0956 16.7935H65.8665L65.4336 17.8571H68.3868L68.0323 18.7436H65.0594L64.5278 20.0631H67.8948L67.5202 20.9691H62.9132L64.9998 15.8875H69.4693L69.0956 16.7935ZM70.0805 19.4129C70.021 19.6296 70.021 19.8068 70.1001 19.9251C70.218 20.1418 70.5134 20.2402 71.0255 20.2402C71.3209 20.2402 71.5763 20.2206 71.793 20.1618C72.1867 20.0431 72.4434 19.8459 72.5613 19.5709C72.6401 19.3933 72.6013 19.2754 72.463 19.177C72.3255 19.0787 72.0692 18.9995 71.7347 18.9403L71.1243 18.8224C70.553 18.7044 70.1593 18.5669 69.9826 18.4285C69.6668 18.1926 69.6085 17.818 69.8247 17.3258C70.0022 16.8731 70.3559 16.4989 70.868 16.1838C71.4001 15.8883 72.0497 15.7312 72.818 15.7312C73.4479 15.7312 73.94 15.8687 74.2746 16.1642C74.6092 16.4401 74.6683 16.8536 74.4717 17.4049H73.2509C73.3688 17.0899 73.29 16.8736 73.0538 16.7552C72.8763 16.6568 72.6601 16.6177 72.3646 16.6177C72.0301 16.6177 71.7542 16.6764 71.4988 16.7944C71.2622 16.8927 71.1051 17.0507 71.0259 17.2478C70.9472 17.4254 70.9859 17.5629 71.1438 17.6612C71.2422 17.72 71.4784 17.7792 71.8526 17.8584L72.8176 18.0751C73.2309 18.1735 73.5263 18.2918 73.7029 18.4494C73.9592 18.6852 73.9984 19.0395 73.8217 19.4929C73.6246 19.9455 73.2505 20.3394 72.6988 20.6545C72.148 20.9499 71.4984 21.1079 70.7109 21.1079C69.9234 21.1079 69.3714 20.9499 69.0368 20.6545C68.7022 20.359 68.6431 19.926 68.8593 19.4138H70.0805V19.4129Z" fill="white"></path></g><defs><clipPath id="clip0_63_25"><rect width="78" height="25" fill="white"></rect></clipPath></defs></svg>