<svg xmlns="http://www.w3.org/2000/svg" width="119" height="25" viewBox="0 0 119 25" fill="none"><g clip-path="url(#clip0_63_35)"><path d="M0 0.324951H119V24.2205H0V0.324951Z" fill="white"></path><path d="M0.707947 1.03564H118.292V23.5096H0.707947V1.03564Z" fill="#005DA8"></path><path d="M15.8668 1.03564H0.707947V23.5096H7.7281L15.8668 1.03564Z" fill="#FFE52C"></path><path d="M92.7771 19.8906H10.897L10.24 21.7045H92.1116L92.7771 19.8906Z" fill="#F8E344"></path><path d="M59.0752 9.07863C56.9541 9.51361 54.0826 11.0687 54.1138 13.9316C54.1308 15.5777 56.1103 16.4904 58.3814 16.4278C59.2668 16.3972 60.1489 16.3021 61.0207 16.1435L61.8702 13.9459C60.7545 14.1221 59.6869 14.3922 58.843 14.0539C57.3279 13.4455 58.2625 11.8648 59.3301 11.3729C59.9196 11.0949 60.5648 10.9558 61.2161 10.9664C61.5361 10.9664 62.3177 10.9863 62.632 11.68L63.6911 9.12127C62.1782 8.7822 60.6111 8.76766 59.0922 9.07863M70.5782 9.01324L69.6125 11.626H67.8539L68.8111 9.01324H65.4554L62.8019 16.2658H66.1265L67.0355 13.8094H68.8139L67.9077 16.2658H71.238L73.9028 9.01324H70.5782ZM50.7241 9.01324L48.0621 16.2658H51.5396L54.1988 9.01324H50.7241ZM43.7662 9.01324L41.2176 12.9082C41.2176 12.9082 41.379 10.8697 41.4214 10.3807C41.4498 10.0083 41.4073 9.01324 40.4983 9.01324H36.4204L33.7613 16.2658H36.933L38.8586 11.0204L38.4537 16.2658H41.2855L44.7404 11.1114L42.8544 16.2658H46.0459L48.705 9.01324H43.7662ZM105.501 9.01324L103.677 13.9913C103.702 13.491 103.801 11.5094 103.864 10.3694C103.889 10.1805 103.875 9.98846 103.824 9.80511C103.772 9.62176 103.683 9.45095 103.564 9.30322C103.394 9.1321 103.167 9.03071 102.926 9.01892H98.8315L96.1753 16.2714H99.1261L101.023 11.1284L100.814 16.2658H105.764L108.423 9.01324H105.501ZM93.2783 9.01324L90.6192 16.2658H94.1193L96.7784 9.01324H93.2783ZM78.4819 10.9124H82.4719L83.1742 9.01324H75.8624L73.2033 16.2658H80.5803L81.2967 14.3098H77.2245L77.5219 13.5023H81.3222L81.9735 11.7169H78.176L78.4819 10.9124ZM88.5151 9.01324H85.1169L82.455 16.2658H89.291L90.1746 13.8549H86.748L88.5151 9.01324Z" fill="white"></path><path d="M7.14475 6.44299V6.46289L7.19856 6.59083C7.41334 7.11772 7.65726 7.63216 7.92917 8.13174C8.08024 8.41218 8.25857 8.67692 8.46156 8.9221C8.26638 9.20363 8.12432 9.51874 8.04245 9.85176C7.94512 10.3607 7.98821 10.8866 8.16705 11.3728C8.23953 11.5906 8.33444 11.8002 8.45023 11.9982C8.44853 12.0162 8.44853 12.0343 8.45023 12.0523C8.38347 12.58 8.45977 13.1161 8.67109 13.6039C8.88241 14.0918 9.22092 14.5133 9.65094 14.8242C9.79015 14.931 9.93791 15.0261 10.0927 15.1085C10.2416 15.5372 10.5135 15.9122 10.8743 16.186C11.1384 16.393 11.4338 16.5562 11.7493 16.6693C12.1157 17.1652 12.6422 17.5179 13.2389 17.6672C13.3987 17.7121 13.5614 17.7454 13.726 17.7667L13.7515 17.7951C14.0835 18.1089 14.487 18.3363 14.9267 18.4576C14.8549 18.9346 14.8976 19.4219 15.0513 19.8791H32.385C32.3877 19.2995 32.2298 18.7306 31.9291 18.2358L31.9008 18.1988C32.0149 17.3625 31.8064 16.514 31.3179 15.827C30.8293 15.1399 30.0978 14.6663 29.2728 14.5029C29.185 14.4859 29.0944 14.4717 29.0066 14.4631H28.9698C28.3466 13.8576 27.6194 13.3702 26.8233 13.0246L26.8544 12.8909H26.8912C27.8314 12.4815 28.3893 11.785 28.5082 10.8781C28.5978 10.1509 28.4173 9.41609 28.0013 8.81406C28.0019 8.8046 28.0019 8.7951 28.0013 8.78563C28.1157 7.92314 27.9645 7.04616 27.5681 6.27241C27.2691 5.717 26.8034 5.27033 26.2371 4.9959C26.0842 4.47563 25.4243 4.07761 24.7164 4.09751C24.15 4.11172 23.5525 4.38181 23.3231 4.80542C22.6595 5.04506 22.0726 5.4599 21.624 6.00626C21.1755 6.55261 20.882 7.21027 20.7744 7.90999C20.4708 8.1334 20.218 8.41905 20.0326 8.74801C19.8473 9.07696 19.7338 9.4417 19.6995 9.81806C19.6652 10.1944 19.711 10.5738 19.8338 10.931C19.9567 11.2883 20.1537 11.6152 20.412 11.8902C19.591 11.8957 18.7725 11.9814 17.9681 12.1461H17.9369C17.5478 11.8655 17.1031 11.6724 16.6331 11.5796C16.163 11.4869 15.6786 11.4969 15.2127 11.6087C15.1768 11.6182 15.1431 11.6346 15.1136 11.6571C14.8405 11.5763 14.561 11.5192 14.2782 11.4865H14.2215C14.0927 11.0579 13.8613 10.6675 13.5476 10.3493L13.4966 10.3038C13.4499 10.0416 13.3874 9.78237 13.3097 9.52766C13.1973 9.12487 12.9781 8.7603 12.6754 8.4729C12.4668 8.26492 12.2233 8.09553 11.9561 7.97253C11.9852 7.89373 12.0089 7.81298 12.0269 7.73088C12.0282 7.71005 12.0282 7.68916 12.0269 7.66833C12.0269 7.66833 12.1288 6.69033 12.2421 6.1132V6.0933C12.5564 4.12025 12.5592 4.10319 12.5621 4.07192C12.5687 3.98327 12.5567 3.89422 12.527 3.81049C12.4972 3.72676 12.4503 3.65021 12.3893 3.58577C12.3076 3.50118 12.2093 3.43452 12.1006 3.38999C11.9919 3.34546 11.8752 3.32403 11.7578 3.32705C11.5859 3.32969 11.4175 3.37655 11.2688 3.46315C11.1201 3.54976 10.9959 3.67322 10.9083 3.82174C10.7981 4.00762 10.7106 4.20617 10.6477 4.41308C10.3249 3.76772 9.91147 2.92903 9.59147 2.31494L9.57448 2.28367C9.50192 2.16479 9.40043 2.0664 9.27955 1.99776C9.15867 1.92912 9.02238 1.8925 8.88351 1.89133C8.7799 1.89158 8.6772 1.91085 8.5805 1.94819C8.43334 1.81824 8.2441 1.74649 8.04811 1.74634C7.95166 1.74866 7.85614 1.76592 7.76493 1.79751C7.5966 1.85055 7.45041 1.95787 7.34903 2.10283C7.24765 2.24779 7.19675 2.42228 7.20422 2.59924C7.07555 2.64462 6.96101 2.72312 6.87205 2.8269C6.78309 2.93068 6.72284 3.05609 6.69732 3.19059C6.67309 3.3344 6.67985 3.48176 6.71714 3.62273C6.71714 3.62273 6.71714 3.65116 6.7313 3.67959L6.70581 3.71654C6.51325 4.02075 6.42263 4.56945 7.14192 6.43446" fill="black"></path><path d="M31.8271 19.8903H31.1503C31.3734 19.6243 31.554 19.3251 31.6855 19.0033C31.788 19.2876 31.8388 19.588 31.8356 19.8903M20.5422 12.4417C20.6797 12.4512 20.8156 12.4769 20.9472 12.5184C21.202 12.6151 21.7089 13.1041 21.9836 13.1467C22.0318 13.1467 22.1564 13.1211 22.0204 13.0245C21.9836 12.996 21.6636 12.7146 21.7826 12.5668C21.7989 12.5415 21.8228 12.5222 21.8507 12.5114C21.8787 12.5007 21.9094 12.4992 21.9383 12.507C22.3348 12.6066 22.6689 12.6634 22.7879 12.6805H22.9379C22.9379 12.6805 22.9379 12.6378 22.8672 12.6151C22.236 12.4607 21.6375 12.194 21.1001 11.8276C20.7896 11.5954 20.5453 11.2855 20.3917 10.9287C20.2381 10.5719 20.1807 10.1809 20.225 9.79482C20.2623 9.51473 20.3546 9.24485 20.4965 9.00084C20.6385 8.75683 20.8273 8.54353 21.0519 8.37331C21.2283 8.25975 21.4187 8.1699 21.6183 8.10607C21.842 8.02646 21.4767 7.96676 21.4484 7.96107C21.3549 7.94686 21.3493 7.8502 21.4257 7.55452C21.5723 7.03261 21.8449 6.55508 22.2193 6.16428C22.5938 5.77348 23.0585 5.4815 23.5723 5.31423C23.7295 5.25249 23.8903 5.20028 24.0537 5.15786C24.2689 5.12375 24.1896 5.02709 23.9433 4.99866C23.9433 4.99866 23.8611 4.99866 23.9008 4.93895C23.9363 4.89757 23.9773 4.86122 24.0225 4.83092C24.2364 4.70116 24.4807 4.63054 24.7305 4.62622C25.2317 4.62622 25.665 4.89346 25.716 5.15218C25.716 5.15218 25.733 5.20335 25.6735 5.20619C25.614 5.20904 25.5008 5.24884 25.631 5.31423C25.6622 5.32844 25.7953 5.37109 25.985 5.45922L26.0133 5.47344C26.3928 5.6497 27.568 6.36899 27.4831 8.40174V8.58369C27.4831 8.58369 27.4831 8.69457 27.4661 8.75143C27.3556 8.75143 27.3075 8.78555 27.3868 8.86515C27.4925 8.97716 27.5873 9.09901 27.67 9.22906C27.946 9.69839 28.0604 10.2459 27.9956 10.787C27.9533 11.0851 27.8419 11.3691 27.6702 11.616C27.4985 11.8629 27.2715 12.0659 27.0073 12.2085C26.617 12.4243 26.1986 12.5841 25.7641 12.6833C25.6452 12.7089 25.7018 12.8653 26.2484 12.8567C26.2937 12.8567 26.3956 12.8567 26.424 12.9221C26.4891 13.0415 26.3786 13.2718 26.1408 13.414C25.9029 13.5561 26.0983 13.5618 26.3843 13.4737C26.499 13.4836 26.6111 13.5134 26.7156 13.5618C27.7027 14.006 28.564 14.6899 29.2218 15.5519C29.8278 16.4276 30.0487 17.1156 29.859 17.542C29.7819 17.6756 29.6755 17.7898 29.548 17.876C29.4204 17.9622 29.275 18.0181 29.1227 18.0395C27.0045 18.3693 23.3287 17.7865 20.7942 17.0388C20.2161 16.8642 19.6487 16.6553 19.0951 16.4133C19.3707 15.7923 19.4639 15.1051 19.3635 14.4327C19.2632 13.7603 18.9736 13.1306 18.5288 12.6179L18.4919 12.5781C19.1823 12.4604 19.8816 12.4033 20.5818 12.4075" fill="white"></path><path d="M30.9096 16.2286C31.2825 16.7868 31.4386 17.4629 31.3483 18.1288C31.258 18.7947 30.9276 19.4043 30.4197 19.8421C30.4584 19.2874 30.301 18.7367 29.9751 18.287C30.1368 18.1597 30.2651 17.9948 30.3489 17.8065C30.6321 17.1782 30.3971 16.3196 29.658 15.2478L29.6098 15.1853C30.1416 15.387 30.5972 15.7509 30.9125 16.2258M18.0729 13.0246C18.4847 13.4935 18.7386 14.0809 18.7986 14.7031C18.8586 15.3253 18.7216 15.9507 18.407 16.4902C17.6849 17.6672 16.3766 18.2529 15.1617 17.9515C14.9908 17.9079 14.8248 17.8469 14.6661 17.7696C15.3548 17.6655 15.9865 17.3256 16.4541 16.8075C16.9217 16.2893 17.1964 15.6248 17.2318 14.9265C17.3202 14.1058 17.0888 13.2826 16.5861 12.6294C16.4147 12.4105 16.2113 12.2188 15.9829 12.0608C16.3784 12.0657 16.7686 12.1528 17.1288 12.3167C17.489 12.4807 17.8114 12.7178 18.0757 13.0132" fill="white"></path><path d="M16.1415 12.982C16.5536 13.5203 16.7423 14.1978 16.6683 14.8726C16.6283 15.3909 16.4338 15.8852 16.11 16.2909C15.7862 16.6966 15.3482 16.9949 14.853 17.147C14.4929 17.2454 14.1162 17.2666 13.7474 17.2093C13.3785 17.1519 13.0258 17.0174 12.7122 16.8144C13.318 16.7938 13.9031 16.5873 14.3886 16.2229C14.8741 15.8585 15.2368 15.3535 15.4279 14.776C15.6199 14.1768 15.607 13.5303 15.3911 12.9394C15.2921 12.6724 15.1516 12.423 14.9748 12.2002C15.4342 12.3348 15.8414 12.6077 16.1415 12.982Z" fill="white"></path><path d="M14.2866 13.016C14.3285 12.793 14.3475 12.5663 14.3433 12.3394C14.6375 12.629 14.8451 12.9955 14.9427 13.3974C15.0403 13.7994 15.0239 14.2207 14.8955 14.6138C14.7193 15.1628 14.3497 15.6285 13.8561 15.9237C13.3624 16.2188 12.7785 16.3232 12.2137 16.2172C11.6828 16.0985 11.2064 15.8054 10.8601 15.3842C11.0611 15.4278 11.2662 15.4498 11.4718 15.4496C11.8617 15.4487 12.2472 15.3674 12.6045 15.2108C13.0395 15.0101 13.4191 14.7058 13.7103 14.3242C14.0015 13.9427 14.1955 13.4956 14.2753 13.0217" fill="white"></path><path d="M13.4541 11.1511C13.7597 11.6832 13.8605 12.3093 13.7373 12.9109C13.6765 13.3166 13.51 13.6988 13.2546 14.019C12.9991 14.3391 12.6639 14.5857 12.2829 14.7338C11.9019 14.8819 11.4887 14.9262 11.0851 14.8622C10.6816 14.7982 10.302 14.6282 9.98507 14.3694C9.71051 14.1699 9.48034 13.9152 9.30921 13.6216C9.13808 13.3279 9.02974 13.0016 8.99109 12.6636C9.04711 12.714 9.10572 12.7615 9.16666 12.8058C9.61985 13.1282 10.1631 13.2984 10.7185 13.2919C10.967 13.2934 11.2146 13.2619 11.4548 13.1981C11.8273 13.1074 12.1766 12.9386 12.4796 12.703C12.7827 12.4673 13.0327 12.17 13.2134 11.8306C13.3218 11.6195 13.4018 11.3948 13.4513 11.1625" fill="white"></path><path d="M7.18439 4.00369L7.20705 3.98663C7.22663 3.96867 7.2498 3.95511 7.27501 3.94683H7.41377C7.50979 4.00248 7.5896 4.08243 7.64525 4.17871C7.7009 4.27498 7.73045 4.38422 7.73094 4.49553C7.79339 4.9874 7.9657 5.45875 8.23501 5.87439C8.24628 5.89023 8.26115 5.90313 8.27839 5.91203C8.29563 5.92093 8.31474 5.92557 8.33412 5.92557C8.3595 5.92558 8.38426 5.91763 8.40492 5.90282C8.41794 5.89349 8.429 5.88168 8.43747 5.86805C8.44594 5.85443 8.45165 5.83926 8.45428 5.82342C8.45691 5.80758 8.4564 5.79137 8.45279 5.77573C8.44918 5.76008 8.44254 5.74531 8.43324 5.73224C8.18753 5.34818 8.02987 4.91411 7.97164 4.46142C7.96534 4.31006 7.91899 4.16311 7.83737 4.0357C7.75574 3.90828 7.64179 3.80499 7.50722 3.73645C7.44827 3.7151 7.38576 3.70545 7.32315 3.70802C7.29502 3.64729 7.27135 3.58458 7.25236 3.52038C7.22687 3.41519 7.18156 3.21049 7.41094 3.13089H7.47607C7.64315 3.11098 7.8612 3.18775 8.08209 3.98379C8.25145 4.48436 8.48567 4.96038 8.77872 5.39961C8.78621 5.41542 8.79699 5.42943 8.81034 5.44069C8.82368 5.45196 8.83928 5.46022 8.85608 5.4649C8.87288 5.46959 8.89049 5.4706 8.90771 5.46787C8.92493 5.46514 8.94137 5.45872 8.95591 5.44906C8.97045 5.4394 8.98275 5.42671 8.99199 5.41186C9.00122 5.39701 9.00717 5.38035 9.00944 5.36299C9.0117 5.34563 9.01022 5.32799 9.00511 5.31125C8.99999 5.29452 8.99136 5.27908 8.97978 5.26599C8.70433 4.83386 8.48632 4.36745 8.33129 3.8786C8.26623 3.54356 8.10931 3.23341 7.87819 2.98305C7.84704 2.9006 7.81023 2.80678 7.7989 2.77835C7.75926 2.66179 7.71961 2.40592 7.94049 2.332C7.9754 2.3213 8.01162 2.31556 8.0481 2.31494C8.12048 2.32153 8.18904 2.3505 8.24433 2.39785C8.29962 2.44521 8.3389 2.50862 8.35678 2.57934L8.37943 2.63052L9.37341 5.0158C9.37936 5.0328 9.3902 5.04764 9.40456 5.05845C9.42393 5.07325 9.44754 5.0814 9.47188 5.08168C9.49623 5.08196 9.52002 5.07436 9.53972 5.06C9.55942 5.04565 9.57399 5.0253 9.58127 5.00197C9.58855 4.97865 9.58816 4.95359 9.58014 4.93051L8.61447 2.59924C8.63533 2.54847 8.67489 2.50774 8.72492 2.48552C8.77368 2.45893 8.82803 2.44431 8.8835 2.44288C8.92674 2.44516 8.96887 2.45737 9.00668 2.47857C9.04448 2.49976 9.07693 2.52937 9.10155 2.56513C9.10155 2.56513 10.3872 5.09825 10.6308 5.53323C10.5584 5.65005 10.4959 5.77272 10.4439 5.89998C10.4269 5.96537 10.4693 6.02223 10.5005 5.96252C10.5813 5.84882 10.6683 5.73968 10.761 5.63558C10.8205 5.52754 11.0102 5.02433 11.0838 4.86512C11.1409 4.60409 11.2363 4.35304 11.367 4.12025C11.4069 4.04968 11.4645 3.9908 11.534 3.94941C11.6036 3.90803 11.6827 3.88558 11.7635 3.88428C11.9079 3.88428 12.0269 3.9582 12.0184 4.03496C12.0099 4.11172 11.704 6.02507 11.704 6.02507C11.6219 6.43446 11.5483 7.02012 11.5115 7.35844C11.5082 7.44148 11.4987 7.52416 11.4831 7.60579V7.6797C11.4421 7.86116 11.3813 8.03753 11.3019 8.20566L11.4038 8.67192C11.4435 8.86808 11.4888 9.07847 11.5058 9.14385C11.5794 9.40825 11.486 9.56178 11.5341 9.61579C11.5823 9.66981 11.7635 9.33149 11.8173 9.15523C11.8317 8.93685 11.8087 8.71761 11.7493 8.50702C11.9523 8.60227 12.1372 8.73213 12.2959 8.89083C12.5337 9.1122 12.7053 9.39574 12.7915 9.70961C12.8812 10.0138 12.9409 10.3262 12.9699 10.6421C12.9699 10.8923 12.8906 12.2257 11.3189 12.672C11.1284 12.7215 10.9323 12.7454 10.7355 12.7431C10.296 12.7498 9.86576 12.6164 9.50651 12.3621C9.1604 12.0819 8.89336 11.7156 8.73191 11.2996C8.57045 10.8837 8.52021 10.4326 8.58616 9.99107C8.64709 9.74646 8.74856 9.51388 8.88633 9.30306C8.95672 9.34648 9.03177 9.38177 9.11005 9.40826L9.15536 9.62432C9.15536 9.64991 9.28279 10.2526 9.515 10.4346C9.64201 10.5147 9.78982 10.5553 9.93978 10.5511C10.0077 10.5511 10.172 10.5511 10.2031 10.4715C10.2083 10.459 10.2095 10.4451 10.2064 10.4319C10.2034 10.4186 10.1963 10.4066 10.1862 10.3976C10.1637 10.3793 10.1389 10.364 10.1125 10.3521C9.99925 10.2924 9.79252 10.1787 9.74721 9.97401C9.72173 9.85745 9.62545 9.45374 9.57164 9.21209C9.80385 9.02445 9.82934 8.81975 9.5235 8.88514C9.43606 8.89726 9.34702 8.88978 9.26281 8.86323C9.17859 8.83669 9.10127 8.79174 9.03642 8.73162C8.42474 8.19429 7.78191 6.53966 7.65165 6.24683C7.13059 4.91914 7.02014 4.20839 7.18439 4.00938M15.476 18.5656C15.5908 18.5784 15.7061 18.5851 15.8215 18.5855C16.4125 18.5737 16.9917 18.4174 17.5089 18.1301C18.026 17.8427 18.4656 17.433 18.7893 16.9365C19.3815 17.1995 19.9897 17.4246 20.6102 17.6103C22.081 18.0385 23.5826 18.3522 25.1015 18.5485C25.954 18.6631 26.8128 18.7239 27.6728 18.7305C28.1759 18.7343 28.6786 18.7001 29.1765 18.6281C29.2729 18.613 29.3676 18.5892 29.4597 18.5571C29.6096 18.7422 29.7211 18.9555 29.7877 19.1845C29.8543 19.4134 29.8747 19.6534 29.8477 19.8904H15.6601C15.4692 19.4769 15.4051 19.0158 15.476 18.5656Z" fill="white"></path><path d="M23.0484 9.76098C23.0484 9.71265 22.9748 9.71265 22.955 9.71265C22.8948 9.71491 22.8354 9.7274 22.7794 9.74961C22.7119 9.77661 22.653 9.82159 22.6091 9.87971C22.5652 9.93782 22.5379 10.0069 22.5302 10.0794C22.5304 10.0944 22.5365 10.1087 22.5472 10.1192C22.5538 10.126 22.5617 10.1313 22.5705 10.1348C22.5793 10.1382 22.5888 10.1397 22.5982 10.1391C22.6044 10.1391 22.6105 10.1378 22.6162 10.1354C22.6219 10.1329 22.627 10.1293 22.6313 10.1248C22.6355 10.1203 22.6388 10.1149 22.6409 10.109C22.643 10.1032 22.6439 10.097 22.6435 10.0908C22.6497 10.0477 22.6695 10.0078 22.7001 9.97705C22.7772 9.90176 22.8766 9.85384 22.9833 9.84058C23.0145 9.84058 23.0598 9.80647 23.0484 9.75813" fill="black"></path><path d="M25.263 10.9122C25.106 10.9589 24.9415 10.9744 24.7787 10.9577C24.6175 10.9478 24.4593 10.9093 24.3115 10.844C24.1545 10.7641 24.0127 10.6573 23.8923 10.5284C24.4747 10.6826 25.0791 10.7355 25.6792 10.6848C25.5559 10.7875 25.4148 10.8665 25.263 10.9179M26.526 10.1417C26.4665 10.1417 26.4495 10.1872 26.475 10.2071L26.4977 10.2299L26.4353 10.264C26.3003 10.326 26.1588 10.3727 26.0134 10.4033C25.656 10.4782 25.2894 10.4983 24.926 10.463C24.3265 10.4169 23.7379 10.2769 23.1816 10.0479L23.0343 9.99106L22.9607 9.95695C22.9429 9.95013 22.9238 9.94768 22.9049 9.94979C22.8861 9.95191 22.868 9.95853 22.8522 9.96911C22.8364 9.97969 22.8233 9.99391 22.8141 10.0106C22.8049 10.0273 22.7998 10.0459 22.7993 10.065C22.7994 10.0923 22.8078 10.119 22.8235 10.1414C22.8392 10.1638 22.8614 10.1808 22.887 10.1901C23.0373 10.2643 23.1925 10.3279 23.3515 10.3806C23.4815 10.453 23.5968 10.5495 23.6913 10.6649C23.8144 10.7978 23.9554 10.9126 24.1104 11.006C24.4176 11.1756 24.772 11.2385 25.1185 11.1851C25.2934 11.1572 25.461 11.0944 25.6113 11.0003C25.7177 10.9287 25.8198 10.8508 25.9171 10.7672C25.9759 10.7178 26.0383 10.6732 26.104 10.6336C26.1437 10.6108 26.4155 10.5028 26.56 10.4204C26.56 10.4715 26.56 10.5142 26.5911 10.5227C26.6223 10.5312 26.6619 10.4602 26.6761 10.4005C26.6915 10.3505 26.6915 10.2969 26.6761 10.2469C26.6622 10.2212 26.6428 10.199 26.6193 10.1817C26.5958 10.1645 26.5687 10.1528 26.5401 10.1474M23.2212 8.09762C23.241 7.87018 23.3713 7.15943 23.9377 7.21629C24.0948 7.23197 24.2404 7.3065 24.3453 7.42503C24.4503 7.54356 24.5069 7.6974 24.504 7.85596V7.89292C24.5274 8.11158 24.4953 8.33263 24.4106 8.53544C24.3837 8.60471 24.3505 8.67133 24.3115 8.73445C24.2796 8.80486 24.2322 8.86706 24.1728 8.91632C24.1135 8.96559 24.0437 9.00062 23.9688 9.01875H23.9377C24.0478 8.94448 24.1388 8.84482 24.2028 8.72811C24.2668 8.6114 24.3022 8.481 24.3058 8.3478C24.3426 7.92988 24.1444 7.56882 23.8612 7.54323C23.791 7.54088 23.7212 7.55539 23.6576 7.58555C23.5941 7.61571 23.5387 7.66066 23.4959 7.71666C23.55 7.72937 23.5985 7.75971 23.6337 7.80294C23.6689 7.84617 23.6888 7.89988 23.6904 7.95568C23.692 8.01149 23.6752 8.06627 23.6426 8.11148C23.61 8.15669 23.5634 8.1898 23.51 8.20565C23.4654 8.20336 23.4227 8.18618 23.3889 8.15683C23.355 8.12748 23.3319 8.08764 23.3231 8.0436C23.3029 8.11413 23.2896 8.18651 23.2835 8.25967C23.2549 8.4853 23.3114 8.71352 23.4421 8.89935C23.4246 8.88473 23.4085 8.86855 23.3939 8.85102C23.2935 8.71254 23.2319 8.54957 23.2155 8.37908C23.2056 8.28457 23.2056 8.18928 23.2155 8.09478M23.2807 8.94768C23.3428 9.02287 23.424 9.07984 23.5157 9.11257C23.5952 9.1407 23.678 9.15792 23.7621 9.16375C23.8366 9.16775 23.9113 9.16775 23.9858 9.16375C24.3341 9.16375 24.6598 8.61505 24.6711 8.08909C24.6711 7.61146 24.6173 7.23619 24.2746 7.03149C24.2389 7.0096 24.2009 6.9915 24.1614 6.97747C24.0113 6.92312 23.8482 6.91617 23.6941 6.95757C23.5186 7.01079 23.3711 7.13133 23.2835 7.29305C23.1911 7.45765 23.1261 7.63625 23.0909 7.82185C23.0493 8.00841 23.0406 8.20088 23.0654 8.39045C23.0856 8.59011 23.159 8.78063 23.2778 8.94199M26.7384 8.56956C26.7204 8.6591 26.6938 8.74669 26.6591 8.83112C26.6017 8.98918 26.5041 9.12937 26.3759 9.23767C26.3289 9.27178 26.2746 9.2942 26.2173 9.30306C26.3217 9.22653 26.4074 9.12708 26.4678 9.01229C26.5281 8.89749 26.5616 8.77038 26.5656 8.64063C26.6024 8.22271 26.4099 7.86165 26.1323 7.83891C26.0634 7.83474 25.9945 7.84729 25.9314 7.8755C25.8683 7.9037 25.8129 7.94673 25.7699 8.00096C25.869 8.00096 25.9511 8.10331 25.9568 8.23408C25.9653 8.29039 25.9522 8.34784 25.9201 8.39482C25.8881 8.44179 25.8394 8.47478 25.784 8.48711C25.74 8.48457 25.6982 8.46718 25.6653 8.43776C25.6324 8.40834 25.6104 8.36863 25.6028 8.32506C25.5824 8.39558 25.5692 8.46796 25.5631 8.54113C25.547 8.66094 25.5555 8.78281 25.5882 8.89919C25.6208 9.01557 25.6768 9.124 25.7529 9.21777C25.648 9.13642 25.5748 9.02073 25.5461 8.89082C25.5253 8.8203 25.511 8.74795 25.5037 8.67475C25.4759 8.45846 25.5021 8.23862 25.5801 8.03507V7.99811C25.6155 7.84472 25.7079 7.71069 25.8384 7.62348C25.969 7.53627 26.1279 7.50248 26.2824 7.52902C26.8261 7.61715 26.7695 8.33075 26.7299 8.5525M26.8658 7.76499C26.8259 7.58935 26.7192 7.43633 26.5684 7.33854C26.4347 7.26113 26.2804 7.22736 26.1267 7.24187C26.0863 7.24626 26.0464 7.25483 26.0077 7.26746C25.6311 7.38687 25.481 7.72234 25.3706 8.18291C25.2488 8.68897 25.4187 9.28316 25.7415 9.3855C25.8115 9.40455 25.8824 9.41974 25.9539 9.43099C26.0347 9.44273 26.1167 9.44273 26.1975 9.43099C26.2918 9.42248 26.3819 9.38805 26.458 9.33149C26.6106 9.20566 26.7277 9.04199 26.7978 8.8567C26.8687 8.68107 26.9089 8.4945 26.9168 8.30516C26.9316 8.11426 26.9154 7.9222 26.8686 7.73656" fill="black"></path></g><defs><clipPath id="clip0_63_35"><rect width="119" height="25" fill="white"></rect></clipPath></defs></svg>