<svg xmlns="http://www.w3.org/2000/svg" width="205" height="15" viewBox="0 0 205 15" fill="none"><g clip-path="url(#clip0_63_51)"><path d="M7.45756 1.72573C7.07876 2.38836 6.58159 3.19298 6.39219 3.47696C5.18478 5.29919 0 14.008 0 14.221C0 14.4103 2.5332 14.4813 8.6413 14.4813C16.7618 14.4813 17.2589 14.4577 17.1169 14.0554C17.0459 13.8424 16.8565 13.5111 16.7144 13.3217C16.596 13.1561 16.3593 12.8011 16.2172 12.5644C15.4123 11.1209 11.6953 5.01521 11.2455 4.42358C10.9614 4.02127 10.5116 3.33497 10.2512 2.88533C9.16214 0.944775 8.85437 0.518799 8.52292 0.518799C8.33353 0.518799 7.86003 1.0631 7.45756 1.72573ZM9.25684 2.93266C9.51727 3.52429 9.73034 3.90294 10.7247 5.41752C11.2455 6.22214 11.3402 6.64812 11.2929 7.59473C11.2455 8.23369 11.1035 8.89632 10.9614 9.08564C10.8431 9.2513 10.6537 9.55895 10.559 9.74827C10.4879 9.9376 10.2038 10.4109 9.94341 10.8132C9.68299 11.1919 9.37522 11.7598 9.23317 12.0438C8.94907 12.7301 7.81268 12.8011 7.81268 12.1621C7.81268 11.9255 7.69431 11.6178 7.55226 11.4758C7.24449 11.1682 6.77099 10.3636 6.41587 9.55895C6.27382 9.27497 6.08442 9.03831 5.96605 9.03831C5.87135 9.03831 5.77665 8.44668 5.75297 7.71306C5.7293 6.55346 5.84767 6.22214 6.91304 4.39991C8.1678 2.2937 8.78335 1.91505 9.25684 2.93266ZM6.41587 10.7895C6.96039 11.7125 7.50491 12.4935 7.62328 12.5408C7.95473 12.6828 7.83636 13.2507 7.43388 13.3927C6.77099 13.6531 2.24911 13.5584 1.96501 13.2744C1.77561 13.0851 2.10706 12.3515 3.14875 10.6712C4.80598 7.92604 4.73496 7.92604 6.41587 10.7895ZM13.9681 10.7422C15.0098 12.3751 15.2939 12.9904 15.1045 13.2271C14.9388 13.4401 14.1339 13.5347 12.5476 13.5347C10.2038 13.5347 9.46992 13.4164 9.46992 13.0614C9.46992 12.5644 12.1452 8.56501 12.4766 8.56501C12.524 8.56501 13.1869 9.53529 13.9681 10.7422ZM186.77 3.12198C186.226 3.59529 180.639 13.0141 180.639 13.4401C180.639 13.724 181.964 13.7714 189.635 13.7714H198.608L198.987 13.0614C199.176 12.6828 199.342 12.3278 199.342 12.2568C199.342 12.1858 197.116 12.1148 194.37 12.0675C191.482 12.0201 189.327 11.9018 189.185 11.7598C189.043 11.5942 189.256 11.0972 189.801 10.2689L190.629 9.03831H194.252C197.827 9.03831 197.874 9.03831 198.253 8.44668C198.466 8.13903 198.632 7.76039 198.632 7.61839C198.632 7.4764 197.448 7.38174 195.317 7.38174C192.523 7.38174 191.955 7.31075 191.837 7.0031C191.647 6.48246 192.5 5.01521 193.139 4.75489C193.447 4.63656 196.075 4.5419 198.987 4.5419H204.29L204.645 3.78461C204.858 3.3823 205 3.00366 204.953 2.97999C204.905 2.93266 200.904 2.86167 196.027 2.838C188.428 2.767 187.126 2.81433 186.77 3.12198ZM29.9723 3.66629C29.6172 4.11593 29.3567 4.5419 29.3567 4.6129C29.3567 4.6839 30.3984 4.80222 31.6769 4.82589C33.8076 4.89688 33.9733 4.92055 34.0443 5.39386C34.0917 5.7015 33.5472 6.83744 32.7896 8.11537C32.032 9.3223 31.3454 10.5292 31.227 10.8132C31.1087 11.0735 30.7536 11.7125 30.4221 12.2331C29.4514 13.8187 29.4041 13.795 33.5709 13.724L37.2878 13.6531L39.4659 10.1033C40.6733 8.13903 41.7387 6.3878 41.8097 6.19848C42.3069 5.10987 42.591 5.01521 45.2425 5.01521H47.7994L48.4149 4.13959C48.7464 3.64262 49.0068 3.16931 49.0068 3.07465C49.0068 2.95633 44.8637 2.88533 39.7973 2.88533H30.5642L29.9723 3.66629ZM53.3867 4.49457C52.8895 5.37019 52.2029 6.55346 51.8951 7.14509C51.5874 7.73672 50.8061 9.08564 50.1669 10.1269C49.5277 11.1919 49.0068 12.1385 49.0068 12.2568C49.0068 12.3515 48.8411 12.6118 48.628 12.8484C48.4149 13.0851 48.2966 13.4401 48.3676 13.6531C48.486 13.937 49.0305 14.008 51.5637 14.008C53.6471 14.008 54.7124 13.9134 54.9729 13.7004C55.1623 13.5584 55.7305 12.8011 56.2276 12.0438C57.2693 10.4346 57.8375 10.1506 59.7552 10.2689C61.3887 10.3872 61.8859 10.8132 62.1227 12.3751C62.2174 12.9431 62.4067 13.5347 62.5488 13.7004C62.8329 14.0317 64.2771 14.1027 67.118 13.8424L68.941 13.7004L68.8226 12.4935C68.7516 11.8308 68.6095 10.9552 68.5385 10.5766C68.3728 9.8666 68.3965 9.84294 69.888 9.39329C71.7109 8.84899 72.5159 8.28102 73.2735 7.0031C74.2678 5.29919 74.0547 4.0686 72.6579 3.35864C71.8056 2.909 71.2374 2.88533 63.046 2.88533H54.3336L53.3867 4.49457ZM65.5555 5.58318C66.1947 6.15114 66.1947 7.12142 65.5555 8.18636L65.0583 9.03831H61.9096C60.1576 9.03831 58.6898 8.94365 58.5951 8.82533C58.4767 8.58867 59.0213 7.4764 60.0866 5.89083L60.7022 4.96788L62.8802 5.06254C64.6085 5.10987 65.153 5.2282 65.5555 5.58318ZM80.1155 3.40597C79.642 3.97394 79.4999 4.23425 78.3399 6.3878C77.9374 7.12142 77.2508 8.32835 76.801 9.06198C76.3512 9.7956 75.9961 10.4582 75.9961 10.5529C75.9961 10.6239 75.5699 11.3812 75.0491 12.2331C74.3625 13.3454 74.1968 13.8187 74.4099 13.9134C74.5756 13.9607 76.0908 13.9844 77.748 13.9607L80.7784 13.8897L81.7964 11.9965C82.3646 10.9552 82.9801 9.84294 83.1695 9.51162C83.3353 9.18031 83.9035 8.1627 84.4006 7.26342C84.8978 6.34047 85.5607 5.20453 85.8685 4.73123C86.1526 4.23425 86.413 3.61896 86.413 3.35864C86.413 2.909 86.2709 2.88533 83.501 2.88533C80.7547 2.88533 80.5416 2.909 80.1155 3.40597ZM94.0126 5.58318C92.4974 7.07409 90.0116 9.48796 88.4727 11.0025C86.3183 13.0851 85.7738 13.7477 86.0579 13.866C86.2709 13.937 87.3363 14.008 88.4253 14.008H90.3904L91.5031 13.0141C93.1366 11.5468 93.4207 11.4285 95.5751 11.4048C97.9189 11.4048 98.8423 11.6888 98.6292 12.3515C98.132 13.937 97.7769 13.795 101.944 13.724L105.708 13.6531L105.874 12.7064C105.968 12.1858 106.205 11.0025 106.395 10.1033C106.939 7.5474 107.484 4.75489 107.649 3.76095L107.791 2.88533H96.7589L94.0126 5.58318ZM99.5525 6.19848C99.7182 6.48246 99.4578 8.636 99.1974 9.06198C99.008 9.34596 96.6878 9.74827 96.1433 9.55895C95.7409 9.41696 96.1907 8.75433 97.7059 7.28708C99.1264 5.91449 99.3158 5.81983 99.5525 6.19848ZM115.58 6.00915C114.562 7.73672 113.639 9.3223 113.568 9.51162C113.473 9.70094 113.189 10.1742 112.929 10.5766C112.668 10.9552 112.361 11.4995 112.219 11.7598C112.076 12.0201 111.769 12.5644 111.532 12.9668L111.082 13.7004L114.16 13.8424C115.841 13.9134 117.356 13.9134 117.498 13.866C117.664 13.795 118.469 12.8011 119.321 11.6415C120.173 10.4819 120.978 9.53529 121.097 9.51162C121.357 9.51162 122.162 10.8132 122.162 11.2155C122.162 11.3339 122.304 11.7835 122.493 12.1858C122.683 12.6118 122.872 13.1324 122.967 13.3454C123.085 13.724 123.44 13.7714 126.045 13.7714C129.454 13.7714 129.501 13.7477 130.685 11.5232C131.111 10.7422 131.537 9.98493 131.632 9.8666C131.727 9.72461 132.2 8.87266 132.697 7.97337C133.194 7.05043 133.857 5.89083 134.165 5.37019C134.97 3.95027 135.017 3.85561 134.875 3.50063C134.781 3.26398 134.402 3.19298 133.526 3.24031C132.863 3.26398 132.295 3.33497 132.247 3.3823C131.987 3.66629 128.696 9.22764 128.53 9.67728C128.294 10.3162 127.418 10.4109 127.228 9.7956C127.086 9.34596 126.305 7.35808 125.903 6.43513C124.293 2.55402 124.932 3.00366 120.931 2.93266L117.451 2.86167L115.58 6.00915ZM145.6 3.14565C142.996 3.87927 142.025 4.23425 140.818 4.84955C137.787 6.41146 136.154 9.06198 136.864 11.2155C137.432 12.9904 138.9 13.7714 141.623 13.7714C143.138 13.7714 143.73 13.6767 146.31 13.0378C148.157 12.5881 148.323 12.6354 148.252 13.3454L148.181 14.008H149.98C151.471 14.008 151.803 13.937 151.921 13.5821C152.016 13.3691 152.466 12.5408 152.939 11.7598C154.028 9.9376 155.07 7.92604 155.07 7.61839C155.07 7.4764 153.673 7.38174 151.211 7.38174C147.707 7.38174 147.281 7.42907 146.926 7.83138C146.713 8.06804 146.5 8.56501 146.476 8.94365C146.429 9.60628 146.452 9.62995 147.731 9.70094C149.341 9.7956 149.577 10.0086 149.056 10.8132C148.512 11.6415 147.328 12.1148 145.742 12.1148C144.606 12.1148 144.322 12.0201 143.588 11.3812C142.854 10.7186 142.759 10.5292 142.759 9.44063C142.759 7.5474 144.227 6.00915 146.902 5.10987C148.157 4.70756 150.761 4.73123 154.596 5.2282C156.467 5.46485 156.964 5.32286 156.964 4.5419C156.964 4.09226 156.017 3.73728 153.886 3.33497C152.063 2.97999 146.594 2.86167 145.6 3.14565ZM163.309 3.28764C162.954 3.71362 160.752 7.40541 160.444 8.0917C160.349 8.28102 160.065 8.75433 159.805 9.15664C159.544 9.53529 159.26 10.0323 159.166 10.2216C159.071 10.4109 158.597 11.2392 158.1 12.0675C157.603 12.8958 157.248 13.6531 157.319 13.795C157.414 13.9134 161.012 14.008 166.315 14.008H175.146L175.667 13.1797C175.951 12.7301 176.117 12.2568 176.022 12.1148C175.927 11.9728 174.057 11.8782 171.027 11.8782C166.718 11.8782 166.197 11.8308 166.197 11.4995C166.197 11.2865 166.836 9.9376 167.618 8.51768C168.399 7.09776 169.038 5.89083 169.038 5.81983C169.038 5.7725 169.298 5.29919 169.63 4.77856C169.961 4.25792 170.222 3.61896 170.222 3.35864C170.222 2.909 170.08 2.88533 166.955 2.88533C164.114 2.88533 163.616 2.93266 163.309 3.28764Z" fill="#1B5798"></path></g><defs><clipPath id="clip0_63_51"><rect width="205" height="15" fill="white"></rect></clipPath></defs></svg>