<svg xmlns="http://www.w3.org/2000/svg" width="83" height="20" viewBox="0 0 83 20" fill="none"><path fill-rule="evenodd" clip-rule="evenodd" d="M16.273 11.3034C16.2829 11.3643 16.3293 11.5933 16.4526 11.5933L16.5023 11.5994C16.5028 11.5999 16.7195 11.6646 16.7063 11.1286L16.7077 11.0972L16.7654 10.633C16.4071 10.589 15.616 10.5585 14.8759 10.9881V12.0023C15.0096 12.126 15.4298 12.4385 16.333 12.5256V12.3986C16.1004 12.3551 15.7163 12.2515 15.4603 12.0187C15.3632 11.9466 14.9191 11.5484 15.9494 10.9492C15.9835 10.9303 16.0221 10.9207 16.0611 10.9213C16.1002 10.922 16.1383 10.9329 16.1718 10.953C16.2053 10.9731 16.2329 11.0016 16.2518 11.0358C16.2707 11.0699 16.2803 11.1084 16.2796 11.1474L16.273 11.3034ZM3.0671 12.0637C3.02349 12.2684 3.05632 12.4619 3.1412 12.5706C3.15837 12.5927 3.17876 12.6121 3.2017 12.6282C3.22467 12.6439 3.25047 12.6555 3.27767 12.6614L3.27908 12.6619H3.28002C3.41321 12.6905 3.55249 12.5907 3.64301 12.4211C3.67896 12.3538 3.70517 12.2817 3.72086 12.207V12.2061L3.72133 12.2028C3.76541 11.9976 3.73258 11.8028 3.6477 11.6941C3.63053 11.6718 3.61014 11.6522 3.5872 11.636C3.56518 11.6208 3.54053 11.6098 3.51451 11.6037L3.50466 11.6013C3.37335 11.5751 3.235 11.6749 3.14542 11.843C3.12806 11.8757 3.11302 11.9095 3.1004 11.9442C3.08821 11.977 3.07789 12.0131 3.06945 12.0496C3.06945 12.0543 3.06757 12.059 3.0671 12.0637ZM3.1548 12.0731C3.16278 12.0389 3.17262 12.0056 3.18388 11.9747C3.19502 11.9438 3.20834 11.9137 3.22374 11.8847C3.29456 11.7522 3.39633 11.6711 3.48731 11.688C3.49153 11.6884 3.4934 11.6894 3.49762 11.6903C3.51216 11.6945 3.52576 11.7006 3.53843 11.7095C3.55381 11.7207 3.56755 11.7334 3.57923 11.7484C3.6491 11.8384 3.6749 12.0051 3.63644 12.185L3.6355 12.1892C3.6209 12.2559 3.59739 12.3204 3.56563 12.3808C3.49387 12.5153 3.3907 12.5968 3.29878 12.5771L3.29596 12.5767C3.27987 12.5727 3.26462 12.5659 3.25094 12.5565C3.23534 12.5456 3.22157 12.5324 3.21014 12.5172C3.1412 12.4286 3.11494 12.2642 3.15199 12.0866C3.15279 12.0821 3.15372 12.0776 3.1548 12.0731ZM3.63269 13.8813C3.80011 14.0069 3.98958 14.0589 4.12371 14.0284C4.17923 14.0178 4.22914 13.9878 4.2644 13.9436L4.26487 13.9427L4.26534 13.9413C4.34741 13.8331 4.31552 13.6644 4.20015 13.5103C4.17851 13.4819 4.15501 13.455 4.1298 13.4297L4.12465 13.4241C4.09756 13.3974 4.0689 13.3724 4.03882 13.3492L4.03742 13.3487L4.03507 13.3468C3.86765 13.2203 3.67724 13.1674 3.54265 13.1988C3.51512 13.2046 3.48868 13.2147 3.46433 13.2288C3.44162 13.2425 3.42087 13.2599 3.40383 13.2803L3.39773 13.2887C3.31894 13.3974 3.3513 13.5642 3.46573 13.716C3.51315 13.7788 3.56938 13.8345 3.63269 13.8813ZM3.67818 13.8059C3.65118 13.7849 3.62549 13.7622 3.60127 13.738C3.57799 13.7147 3.55622 13.6895 3.53608 13.6635C3.44557 13.5426 3.41508 13.4171 3.46855 13.3417C3.47042 13.3379 3.4723 13.337 3.47464 13.3332C3.4847 13.3217 3.49658 13.3119 3.50982 13.3042C3.52642 13.2953 3.54406 13.2881 3.56234 13.2836C3.67349 13.2578 3.83576 13.3051 3.98255 13.4161L3.98301 13.4166L3.9863 13.419C4.0149 13.4405 4.04164 13.4644 4.06555 13.4883C4.09041 13.5126 4.11245 13.5379 4.13074 13.5628C4.22266 13.6846 4.25268 13.812 4.19593 13.887H4.19687C4.19405 13.8898 4.19687 13.886 4.19452 13.8893C4.18398 13.9023 4.1711 13.9133 4.15654 13.9216C4.14021 13.9311 4.12295 13.9379 4.10448 13.9418L4.10401 13.9422C3.99427 13.9675 3.83435 13.9212 3.6885 13.8125C3.68476 13.8108 3.68128 13.8086 3.67818 13.8059ZM4.64052 10.8986C4.84968 10.9089 5.02789 10.9914 5.1109 11.1024C5.12872 11.1258 5.14232 11.1502 5.15123 11.175L5.1517 11.1755C5.16098 11.2016 5.16512 11.2293 5.1639 11.257L5.16343 11.2589V11.2598C5.15639 11.3957 5.02367 11.5043 4.83655 11.5479C4.80144 11.5556 4.76589 11.561 4.73009 11.5643L4.72259 11.5652C4.68601 11.568 4.64755 11.569 4.60816 11.5676L4.60488 11.5671C4.39524 11.5568 4.21563 11.4748 4.13215 11.3638C4.11501 11.3416 4.10155 11.3167 4.09229 11.2902C4.08353 11.2651 4.07893 11.2386 4.07962 11.212V11.2017C4.089 11.0687 4.22125 10.9609 4.40697 10.9188C4.44167 10.9103 4.47919 10.9047 4.51624 10.901C4.55141 10.8981 4.58799 10.8972 4.62551 10.8981L4.64052 10.8986ZM4.62645 10.9853C4.59236 10.9837 4.5582 10.9845 4.52421 10.9876C4.49143 10.9907 4.45886 10.9962 4.42667 11.0031C4.27988 11.0368 4.1753 11.1136 4.16826 11.2059C4.16732 11.2101 4.16779 11.2129 4.16732 11.2162C4.16785 11.2316 4.1707 11.2467 4.17576 11.2612C4.18253 11.2788 4.19168 11.2953 4.20296 11.3104C4.27143 11.4017 4.42667 11.4697 4.61004 11.4786L4.6105 11.479H4.61379C4.68224 11.4816 4.75075 11.4757 4.81779 11.4617C4.96693 11.427 5.07198 11.3488 5.07667 11.2556L5.07714 11.2523C5.07616 11.2167 5.06365 11.1823 5.04149 11.1544C4.97349 11.064 4.82154 10.9965 4.64005 10.9862L4.62645 10.9853ZM6.21487 12.0637C6.25849 12.2684 6.22566 12.4619 6.14124 12.5706C6.12396 12.5926 6.10358 12.612 6.08074 12.6282C6.05772 12.6438 6.03194 12.6554 6.00477 12.6614L6.00383 12.6619H6.00243C5.86971 12.6905 5.72995 12.5907 5.63991 12.4211C5.6038 12.3538 5.57743 12.2817 5.56159 12.207V12.2061L5.56112 12.2028C5.51657 11.9976 5.54986 11.8028 5.63428 11.6941C5.65149 11.6717 5.67206 11.6521 5.69525 11.636C5.71726 11.6208 5.74191 11.6098 5.76794 11.6037L5.77779 11.6013C5.90957 11.5751 6.04745 11.6749 6.13702 11.843C6.15437 11.8749 6.16938 11.9091 6.18251 11.9442C6.19471 11.977 6.20502 12.0131 6.21347 12.0496C6.21253 12.0543 6.21393 12.059 6.21487 12.0637ZM6.12717 12.0731C6.1133 12.0072 6.08992 11.9438 6.05777 11.8847C5.98695 11.7522 5.88565 11.6711 5.7942 11.688C5.78998 11.6884 5.7881 11.6894 5.78435 11.6903C5.76962 11.6944 5.75568 11.7009 5.74308 11.7095C5.72769 11.7207 5.71396 11.7334 5.70228 11.7484C5.6324 11.8384 5.60661 12.0051 5.64507 12.185L5.646 12.1892C5.65351 12.2244 5.66383 12.2581 5.67555 12.2909C5.68727 12.3232 5.70087 12.3537 5.71541 12.3808C5.78764 12.5153 5.89081 12.5968 5.98226 12.5771L5.98507 12.5767C6.00111 12.5725 6.01632 12.5657 6.0301 12.5565C6.0458 12.5458 6.05959 12.5325 6.0709 12.5172C6.13984 12.4286 6.1661 12.2642 6.12905 12.0866C6.12898 12.0821 6.12835 12.0775 6.12717 12.0731ZM5.65023 13.8813C5.48327 14.0074 5.29333 14.0589 5.15921 14.028C5.13169 14.0219 5.10528 14.0116 5.08089 13.9975L5.08042 13.998C5.05663 13.9836 5.03566 13.965 5.01851 13.9432L5.01758 13.9422L5.01664 13.9408C4.93457 13.8326 4.96646 13.664 5.08183 13.5103C5.10293 13.4822 5.12685 13.4555 5.15217 13.4293L5.15733 13.4241C5.18448 13.3973 5.2133 13.3723 5.24362 13.3492L5.24409 13.3487L5.24737 13.3463C5.41433 13.2194 5.6052 13.1674 5.7398 13.1983C5.76794 13.2049 5.79467 13.2152 5.81765 13.2288C5.84076 13.2422 5.86113 13.2598 5.87768 13.2808L5.88377 13.2887C5.96256 13.3969 5.93067 13.5642 5.81577 13.716C5.79363 13.7457 5.76933 13.7737 5.74308 13.7998C5.71724 13.8255 5.68983 13.8496 5.66101 13.872L5.65023 13.8813ZM5.6052 13.8054C5.65856 13.7645 5.70633 13.7168 5.7473 13.6635C5.83782 13.5431 5.8683 13.4171 5.81484 13.3417C5.81296 13.3379 5.81108 13.3365 5.80874 13.3328C5.7986 13.3215 5.78692 13.3117 5.77403 13.3037C5.75755 13.2941 5.73967 13.2872 5.72104 13.2831C5.60989 13.2578 5.44763 13.3047 5.30084 13.4157L5.29755 13.418C5.26962 13.4397 5.243 13.463 5.21783 13.4878C5.19442 13.511 5.17264 13.5357 5.15264 13.5618C5.06072 13.6841 5.03071 13.8115 5.08698 13.8865L5.08886 13.8888C5.11226 13.9158 5.14392 13.9342 5.1789 13.9413C5.28864 13.9666 5.44903 13.9207 5.59442 13.8125C5.5977 13.8111 5.60145 13.8083 5.6052 13.8054ZM7.29492 7.50973L8.26711 9.27256L9.15442 7.68399C9.22289 7.76129 9.30261 7.83297 9.39265 7.89668C9.68905 8.10749 10.0961 8.23772 10.5426 8.23819H10.5449C10.9919 8.23819 11.3994 8.10749 11.6963 7.89668C11.8309 7.80064 11.9434 7.68868 12.0278 7.56407C12.2173 7.81798 12.4518 8.14216 12.6675 8.46821L12.4879 8.40824L11.9087 8.21524L12.1226 8.78817C12.1235 8.79098 12.3556 9.40842 12.5442 10.0507L11.9598 9.48197L12.0499 10.2933C12.0503 10.2962 12.1338 11.0246 12.1573 11.9152L12.0611 11.7882L11.5978 11.1755L11.534 11.94C11.534 11.9424 11.4885 12.5907 11.3366 13.2981L11.1354 13.0578L10.7264 12.571L10.6218 13.1978C10.6218 13.1988 10.5548 13.559 10.2434 14.6646L10.0272 14.3723L9.70968 13.9427L9.51834 14.4421C9.5174 14.4449 9.17693 15.3125 8.86553 15.8859L8.33558 15.209L8.07811 14.8801L7.85629 15.2343C7.64686 15.5618 7.43204 15.8859 7.21192 16.2063L6.65618 15.5153C7.13896 15.1859 7.53383 14.7436 7.80642 14.227C8.07901 13.7103 8.22106 13.1349 8.22021 12.5509V12.549C8.2208 12.0769 8.12796 11.6093 7.94704 11.1732C7.76611 10.737 7.50066 10.3409 7.16596 10.0076C7.135 9.97667 7.10358 9.94528 7.07122 9.91623C7.43937 9.96917 7.82346 10.0015 8.20474 10.0043L8.34965 10.0038C9.02214 9.99294 9.69112 9.90444 10.3433 9.74009C10.9694 9.58316 11.473 9.37703 11.7127 9.18918L11.6226 9.07393C11.398 9.25008 10.9145 9.4459 10.3081 9.59815C9.66456 9.76026 9.00435 9.84719 8.34074 9.85721L8.20755 9.85768C7.75585 9.85308 7.30526 9.81203 6.86018 9.73494C6.22459 9.22875 5.43557 8.95353 4.6227 8.95448H4.62129C4.48482 8.95448 4.34975 8.96244 4.2175 8.97696L4.45621 8.55347L4.70805 8.10608L4.19452 8.11733L3.87374 8.12435C3.99943 7.9187 4.13918 7.69664 4.25971 7.50832C4.34647 7.65495 4.47122 7.78612 4.62551 7.89574C4.92191 8.10655 5.32898 8.23678 5.77544 8.23725H5.77779C6.22519 8.23725 6.63226 8.10655 6.92912 7.89574C7.08295 7.78753 7.20769 7.65636 7.29492 7.50973ZM9.30871 7.4076L9.35467 7.32515H9.51224C9.56946 7.4254 9.65387 7.51535 9.75939 7.5903C9.96012 7.73272 10.2373 7.82125 10.5421 7.82172H10.5445C10.8502 7.82125 11.1274 7.73272 11.3286 7.58983C11.4341 7.51488 11.5185 7.42493 11.5757 7.32468H11.829C11.7559 7.45831 11.6521 7.57265 11.526 7.65823C11.277 7.83484 10.93 7.94493 10.5445 7.94493H10.5421C10.1571 7.94493 9.81051 7.83531 9.56196 7.6587C9.46337 7.59058 9.37763 7.50557 9.30871 7.4076ZM4.62176 15.2671H4.62223C5.37306 15.2671 6.05261 14.9635 6.54456 14.4721C6.79719 14.2201 6.99756 13.9209 7.13421 13.5914C7.27086 13.262 7.34109 12.9089 7.34088 12.5523V12.5504C7.34088 11.8004 7.03652 11.1216 6.54456 10.6302C6.29253 10.3777 5.99304 10.1775 5.6633 10.0411C5.33356 9.90469 4.98007 9.8347 4.62317 9.83519H4.62176C4.2648 9.83442 3.9112 9.90413 3.5813 10.0403C3.2514 10.1765 2.9517 10.3765 2.69943 10.6288V10.6306C2.44682 10.8825 2.24644 11.1817 2.1098 11.511C1.97315 11.8404 1.90291 12.1934 1.90311 12.55V12.5518C1.90311 13.3018 2.20747 13.9806 2.6999 14.4721C2.95182 14.7245 3.25123 14.9247 3.5809 15.0611C3.91056 15.1976 4.26398 15.2676 4.62082 15.2671H4.62176ZM4.62176 14.9026H4.62035C4.31149 14.9028 4.00562 14.8421 3.72032 14.7239C3.43501 14.6058 3.17589 14.4324 2.95783 14.2139C2.73892 13.996 2.56532 13.7369 2.44701 13.4516C2.3287 13.1664 2.26801 12.8606 2.26844 12.5518V12.55C2.26844 11.9011 2.532 11.3141 2.95736 10.8888C3.17563 10.6701 3.43497 10.4967 3.72052 10.3784C4.00606 10.2602 4.31218 10.1994 4.62129 10.1997H4.6227C4.93163 10.1994 5.23756 10.2601 5.52294 10.3783C5.80832 10.4965 6.06753 10.6698 6.28569 10.8883C6.50451 11.1064 6.67809 11.3654 6.79648 11.6507C6.91486 11.9359 6.97571 12.2417 6.97555 12.5504V12.5523C6.97583 12.8609 6.91507 13.1665 6.79676 13.4516C6.67846 13.7367 6.50493 13.9956 6.28616 14.2135C6.06791 14.4321 5.80856 14.6056 5.52302 14.7239C5.23747 14.8421 4.93135 14.9029 4.62223 14.9026H4.62176ZM4.6227 15.0487C4.95106 15.0491 5.27626 14.9847 5.5796 14.8591C5.88294 14.7335 6.15845 14.5493 6.39027 14.317C6.62257 14.0854 6.80682 13.8102 6.93244 13.5073C7.05807 13.2044 7.1226 12.8797 7.12234 12.5518V12.55C7.12268 12.222 7.05814 11.8971 6.93243 11.5941C6.80671 11.2911 6.62231 11.0159 6.3898 10.7843C6.15815 10.5522 5.8824 10.3681 5.5793 10.2426C5.27621 10.1171 4.95127 10.0527 4.62317 10.053H4.62176C4.29341 10.0527 3.96822 10.1172 3.66489 10.2427C3.36155 10.3683 3.08604 10.5525 2.85419 10.7848C2.62184 11.0163 2.43752 11.2914 2.31182 11.5942C2.18611 11.897 2.12149 12.2217 2.12165 12.5495V12.5514C2.12165 13.2405 2.4021 13.8649 2.85419 14.317C3.08589 14.5492 3.36123 14.7334 3.66441 14.859C3.96759 14.9845 4.29262 15.049 4.62082 15.0487H4.6227ZM6.14546 15.8091L6.14124 15.8114H6.1464L6.14546 15.8091ZM3.10322 15.8114C2.79706 15.6684 2.51244 15.4833 2.25765 15.2614L2.06443 15.8114H3.10322ZM1.80415 14.7878C1.29748 14.1527 1.02197 13.3644 1.02284 12.5523V12.5504C1.02284 11.5582 1.42569 10.6602 2.0771 10.0095L2.07756 10.0104C2.46346 9.62511 2.93161 9.33203 3.44698 9.1531L3.69272 8.71649L3.36256 8.72399L2.86029 8.73477L3.09899 8.29206C3.23031 8.04846 3.47418 7.65542 3.68428 7.32515H3.65848L3.69788 6.99769C3.69835 6.99395 3.74524 6.57842 3.92064 5.96145C2.98597 5.55107 1.82807 4.77997 1.53027 3.41908L1.52652 3.39753C1.52605 3.39144 1.21559 1.26226 3.38413 0.622805L3.75603 0.513184L3.76025 0.901075C3.76025 0.906696 3.76072 2.60957 5.14232 3.37551C5.80593 2.44561 6.76451 1.56349 8.14659 1.05005L8.24835 1.0121L8.35059 1.05005C9.73032 1.56255 10.6884 2.44279 11.352 3.37129C12.7257 2.60301 12.7257 0.906696 12.7257 0.901075L12.7299 0.513184L13.1018 0.622805C15.2708 1.26226 14.9603 3.39144 14.9594 3.39753L14.9557 3.41908C14.6593 4.77482 13.5084 5.54545 12.5756 5.95723C12.7519 6.57654 12.7988 6.99395 12.7993 6.99769L12.8392 7.32515H12.5812C12.9076 7.76785 13.3297 8.37123 13.5905 8.86078L13.9352 9.50773L13.2397 9.27631L12.872 9.15357C12.9306 9.32784 12.9967 9.52881 13.0605 9.73916L14.7038 10.581C15.063 10.385 15.4557 10.2579 15.8617 10.2062V9.03505H17.8783V10.0952C17.9353 10.1024 17.9897 10.1233 18.0367 10.1562C18.0838 10.1891 18.1222 10.233 18.1484 10.284C18.1982 10.3547 18.3309 10.6166 17.8586 10.9C18.0692 10.9202 18.2798 11.0017 18.3398 11.2331C18.3717 11.3104 18.4439 11.5821 18.0157 11.7812C18.2441 11.8388 18.4669 11.963 18.4866 12.2272C18.5035 12.3045 18.5302 12.5762 18.1161 12.7153H19.2946V13.3014H18.638C18.5307 18.3819 17.0947 19.561 17.0904 19.5643L16.8864 19.7381L16.6946 19.5507C16.3532 19.2162 16.0878 18.7304 15.8809 18.1725L15.7862 18.4226L15.3646 19.5399L15.2928 19.7301H10.6251L10.5585 19.5273L9.53053 16.3965H9.24493C9.2088 16.4563 9.16983 16.5143 9.12815 16.5703L8.89976 16.8786L8.66293 16.576L8.52224 16.3961H7.7911C7.66964 16.5745 7.54958 16.7455 7.45766 16.8664L7.23114 17.1634L6.99666 16.8725L6.6135 16.3961H6.40387L5.37634 19.5268L5.30975 19.7297H0.642966L0.571213 19.5395L0.149604 18.4222L0 18.0263H0.423485C2.29142 18.0263 2.64174 16.9568 2.69755 16.3965H1.2395L1.37645 16.0072L1.80415 14.7878ZM13.2673 10.5037C13.3011 10.6517 13.3283 10.7927 13.3457 10.9192L13.4606 11.7601L12.8518 11.1675L12.7003 11.0204C12.7429 11.6118 12.7574 12.205 12.744 12.7978L12.7196 13.6302L12.2168 12.9655L12.0358 12.7256C11.9739 13.1591 11.8816 13.5877 11.7596 14.0083L11.6034 14.5283L11.254 14.1123L11.0603 13.8813C10.9759 14.2116 10.8437 14.7002 10.6406 15.3973L10.5205 15.8109H13.7058L12.8814 12.5481L12.7894 12.1845H14.3629L14.3661 11.0663L13.2673 10.5037ZM10.3625 15.8114L10.1257 15.4905L9.86491 15.1378C9.77862 15.3387 9.67263 15.5776 9.55914 15.8114H10.3625ZM5.77732 7.9454C6.16282 7.9454 6.51033 7.83578 6.75935 7.6587C6.89254 7.56407 6.99712 7.4507 7.06231 7.32515H6.80953C6.74726 7.43031 6.66295 7.52076 6.56238 7.5903C6.36119 7.73318 6.08356 7.82173 5.77826 7.82219H5.77591C5.47061 7.82173 5.19391 7.73318 4.99272 7.59077C4.89205 7.52135 4.80771 7.43087 4.74557 7.32562H4.49279C4.55845 7.45117 4.66256 7.56501 4.79575 7.65964C5.04431 7.83625 5.39088 7.94587 5.77591 7.94587H5.77732V7.9454ZM4.09838 5.40444C4.26487 4.9355 4.49701 4.40426 4.81826 3.87021C3.62988 3.19749 3.30019 1.95231 3.20873 1.31098C1.97673 1.87736 2.08788 3.1558 2.10477 3.30337C2.34863 4.39864 3.29737 5.04513 4.09838 5.40444ZM11.6766 3.86553C11.9675 4.35201 12.2091 4.86628 12.3979 5.40069C13.1975 5.03997 14.1401 4.39349 14.3816 3.30103C14.3999 3.14269 14.5036 1.87455 13.2777 1.31098C13.1867 1.95091 12.8584 3.19187 11.6766 3.86553ZM8.24882 1.63703C5.33836 2.77916 4.5275 5.74829 4.33428 6.7391H12.1634C11.9701 5.74829 11.1588 2.77916 8.24882 1.63703ZM3.84185 16.3975H3.28518C3.26407 16.6954 3.18482 17.1189 2.93532 17.5157L4.28081 16.8889L3.84185 16.3975ZM14.2653 12.7711H13.5422L14.3666 16.0335L14.4585 16.3975H13.2392C13.2945 16.9578 13.6444 18.0273 15.5123 18.0273H15.8284C15.2492 16.3478 15.1681 14.1001 15.1587 13.3018H14.2648L14.2653 12.7711ZM12.6516 16.3975H12.0944L11.6555 16.8889L13.0014 17.5162C12.7519 17.1194 12.6727 16.6959 12.6516 16.3975ZM13.3044 17.9799L11.4515 17.117L10.6706 17.9902L10.717 18.1327L12.531 19.1446H12.7698L13.3044 17.9799ZM11.1734 16.9877L10.1909 16.5296L10.5646 17.6684L11.1734 16.9877ZM13.567 18.1083L13.0915 19.145H13.9422L14.1757 18.4142C13.9598 18.3405 13.755 18.2376 13.567 18.1083ZM11.9312 19.1446L10.8516 18.5421L11.0495 19.1446H11.9312ZM14.4567 18.4971L14.2498 19.145H14.8886L15.0949 18.5979C14.8798 18.5813 14.6664 18.5476 14.4567 18.4971ZM0.840405 18.5974L1.04675 19.1446H1.6855L1.47915 18.4976C1.26929 18.5481 1.05567 18.5814 0.840405 18.5974ZM4.76292 16.9877L5.37165 17.6684L5.74543 16.5296L4.76292 16.9877ZM5.26566 17.9907L4.48482 17.1175L2.63189 17.9809L3.16653 19.145H3.40524L5.21924 18.1331L5.26566 17.9907ZM1.99362 19.1446H2.84434L2.3688 18.1083C2.18129 18.2381 1.97656 18.341 1.76054 18.4142L1.99362 19.1446ZM4.00459 19.1446H4.88673L5.08417 18.5421L4.00459 19.1446ZM16.5882 18.3739V13.3023H15.7454C15.7553 14.1779 15.8476 16.8294 16.5882 18.3739ZM17.1753 13.3023V18.4119C17.5388 17.6441 17.9923 16.1309 18.0514 13.3023H17.1753ZM18.0851 12.1058C17.8961 12.0042 17.5266 12.0295 17.5214 12.0295C17.0431 12.0295 16.961 12.2478 16.9483 12.297C16.9666 12.4984 17.4923 12.5054 17.5317 12.5054H17.5336C17.8591 12.4994 18.0274 12.4577 18.1142 12.4132C18.2544 12.3405 18.208 12.1719 18.0851 12.1058ZM17.4192 11.2251C17.0088 11.2968 16.9619 11.495 16.9568 11.5474C17.0074 11.7123 17.4647 11.6393 17.5059 11.6327C17.7934 11.5769 17.9379 11.5165 18.0092 11.4659C18.1067 11.3975 18.0776 11.2631 17.9712 11.2144C17.7958 11.1338 17.4286 11.2237 17.4276 11.2242L17.4192 11.2251ZM17.15 10.2915C17.1917 10.2662 17.2386 10.2423 17.2912 10.2198V9.6211H16.4479V10.1734C16.6527 10.1757 16.8568 10.1972 17.0576 10.2376C17.0929 10.2465 17.1249 10.2652 17.15 10.2915ZM17.4075 10.4882C17.3365 10.5168 17.2705 10.5563 17.2119 10.6053L17.1847 10.8241C17.2972 10.8354 17.4966 10.7557 17.5294 10.7426C17.7165 10.6583 17.8216 10.6011 17.8661 10.5505C17.9322 10.4761 17.9688 10.4625 17.9233 10.4039C17.8619 10.3238 17.5013 10.4264 17.4126 10.4864L17.4075 10.4882ZM5.25253 12.847C5.29849 12.847 5.33554 12.8095 5.33554 12.7636C5.33554 12.7177 5.29849 12.6802 5.25253 12.6802C5.20657 12.6802 5.16952 12.7177 5.16952 12.7636C5.16952 12.8095 5.20657 12.847 5.25253 12.847ZM3.99615 12.847C4.01829 12.847 4.03952 12.8382 4.05517 12.8225C4.07083 12.8069 4.07962 12.7857 4.07962 12.7636C4.07962 12.7415 4.07083 12.7202 4.05517 12.7046C4.03952 12.689 4.01829 12.6802 3.99615 12.6802C3.95019 12.6802 3.91314 12.7177 3.91314 12.7636C3.91314 12.8095 3.95019 12.847 3.99615 12.847ZM4.62176 13.3206C4.63818 13.3206 4.65423 13.3157 4.66788 13.3066C4.68153 13.2975 4.69217 13.2845 4.69845 13.2694C4.70473 13.2542 4.70638 13.2376 4.70317 13.2215C4.69997 13.2054 4.69207 13.1906 4.68046 13.179C4.66885 13.1674 4.65406 13.1595 4.63795 13.1563C4.62185 13.1531 4.60516 13.1548 4.58999 13.1611C4.57483 13.1673 4.56186 13.178 4.55274 13.1916C4.54362 13.2052 4.53875 13.2213 4.53875 13.2377C4.53875 13.2836 4.5758 13.3206 4.62176 13.3206ZM4.19687 12.1433C4.2134 12.1433 4.22956 12.1384 4.24329 12.1292C4.25703 12.1201 4.26773 12.107 4.27404 12.0917C4.28034 12.0765 4.28196 12.0597 4.27871 12.0435C4.27545 12.0273 4.26745 12.0125 4.25573 12.0008C4.24401 11.9892 4.22909 11.9813 4.21286 11.9781C4.19664 11.9749 4.17984 11.9766 4.1646 11.983C4.14935 11.9894 4.13635 12.0002 4.12723 12.014C4.11811 12.0277 4.1133 12.0439 4.11339 12.0604C4.11339 12.1063 4.15044 12.1433 4.19687 12.1433ZM5.04712 12.1433C5.05858 12.1442 5.07009 12.1427 5.08094 12.1389C5.09178 12.1351 5.10173 12.1291 5.11015 12.1213C5.11857 12.1135 5.12529 12.104 5.12989 12.0935C5.13448 12.083 5.13685 12.0716 5.13685 12.0602C5.13685 12.0487 5.13448 12.0373 5.12989 12.0268C5.12529 12.0163 5.11857 12.0068 5.11015 11.999C5.10173 11.9912 5.09178 11.9852 5.08094 11.9815C5.07009 11.9777 5.05858 11.9762 5.04712 11.977C5.02612 11.9786 5.0065 11.988 4.99218 12.0035C4.97785 12.0189 4.9699 12.0391 4.9699 12.0602C4.9699 12.0812 4.97785 12.1015 4.99218 12.1169C5.0065 12.1323 5.02612 12.1417 5.04712 12.1433ZM4.62176 12.9392C4.67386 12.9411 4.72579 12.9324 4.77445 12.9137C4.82312 12.895 4.86752 12.8668 4.90502 12.8306C4.94252 12.7944 4.97234 12.7511 4.9927 12.7031C5.01307 12.6552 5.02357 12.6037 5.02357 12.5516C5.02357 12.4995 5.01307 12.448 4.9927 12.4C4.97234 12.3521 4.94252 12.3088 4.90502 12.2726C4.86752 12.2364 4.82312 12.2081 4.77445 12.1895C4.72579 12.1708 4.67386 12.1621 4.62176 12.1639C4.52117 12.1674 4.42587 12.2098 4.35595 12.2821C4.28602 12.3544 4.24694 12.4511 4.24694 12.5516C4.24694 12.6521 4.28602 12.7487 4.35595 12.8211C4.42587 12.8934 4.52117 12.9358 4.62176 12.9392Z" fill="#265398"></path><path fill-rule="evenodd" clip-rule="evenodd" d="M26.7383 19.7093L26.244 0.615098V0H30.1164C29.8528 0.615096 30.1454 1.7872 29.1779 2.10951C28.709 2.25567 28.21 2.51988 27.9164 3.01786C27.5647 6.32898 28.0046 9.34731 28.0632 12.6589H28.1218C29.6765 9.4944 31.6715 6.50512 32.9912 3.22305C33.0793 2.66651 32.5808 2.22662 32.1409 2.0219C31.9946 2.0219 31.9064 1.84623 31.7887 1.75816C31.7596 1.08403 32.0232 0.556538 32.1409 0H38.0664C38.0664 0.673654 38.4182 1.7872 37.4211 2.0219C36.8344 2.31469 36.2768 2.81314 35.8665 3.36968L26.7383 19.7093Z" fill="#B81F25"></path><path fill-rule="evenodd" clip-rule="evenodd" d="M80.6613 7.83053C81.0431 7.86004 81.0726 7.50822 81.3657 7.33255H82.4219L81.278 11.4939C80.8381 11.582 80.1047 11.6991 79.8702 11.1421C79.547 10.2923 79.7529 9.17878 78.9022 8.59272C78.1687 8.41705 77.7584 9.14926 77.3471 9.58915C75.9688 12.109 75.1241 15.0079 75.4412 18.029C75.5293 18.3218 75.9101 18.3804 76.1446 18.2342C76.7904 17.3844 77.2008 16.3294 77.2008 15.2745C76.8781 14.8645 76.5264 14.3661 76.7904 13.8096L76.9367 13.4577L81.7766 13.4334C81.249 14.4589 81.1317 15.6263 80.8095 16.7689C80.545 17.472 81.8947 17.3549 81.2199 18.0876C79.8416 20.2266 76.849 20.2266 74.5313 19.7286C73.358 19.2597 71.9492 18.2633 71.6561 16.974C71.0408 13.8677 71.8024 10.6441 74.2382 8.47561C75.9974 7.0688 78.7845 6.10189 80.6613 7.83053ZM41.1468 7.02243C41.0296 7.54945 40.9414 8.25027 40.3843 8.48498C40.0321 8.57305 39.6508 8.83633 39.5335 9.18815C38.8296 12.177 37.8321 15.0196 37.2745 18.0674C37.773 18.3307 38.0956 18.8582 37.8612 19.3857L37.7148 19.7375L31.5253 19.7338C31.4957 19.2063 31.7307 18.5945 32.2878 18.3307C32.7864 18.2136 33.0213 17.8032 33.1972 17.3643L35.3972 9.12959C35.309 8.74872 34.84 8.54354 34.6932 8.22123L34.9573 7.02243H41.1468ZM61.5534 7.02243C61.4361 7.54945 61.348 8.25027 60.7903 8.48498C60.4386 8.57305 60.0578 8.83633 59.9406 9.18815C59.2362 12.177 58.2386 15.0196 57.681 18.0674C58.18 18.3307 58.5027 18.8582 58.2682 19.3857L58.1219 19.7375L51.9319 19.7338C51.9028 19.2063 52.1373 18.5945 52.6949 18.3307C53.1929 18.2136 53.4274 17.8032 53.6042 17.3643L55.8042 9.12959C55.716 8.74872 55.2466 8.54354 55.0998 8.22123L55.3634 7.02243H61.5534ZM45.459 12.2735L48.8324 8.96234C48.9787 8.46437 48.4807 8.43485 48.3343 8.05399L48.5397 7.0229H53.7618C53.8012 7.37097 53.6544 7.90174 53.4687 8.05399C52.5884 8.72764 51.4737 8.78667 50.652 9.60695L48.6279 11.5117L50.652 17.7531C51.0624 18.4268 52.2062 18.632 51.5027 19.5989L51.3564 19.745H45.2541C45.3423 19.3056 45.2541 18.5439 45.8703 18.3387C46.0757 18.2801 46.3979 18.163 46.3684 17.8993C46.1048 16.4339 45.4881 15.1156 45.0191 13.7679C44.6383 15.1742 44.0803 16.581 44.0512 18.0459C44.726 18.3392 44.697 18.9543 44.4615 19.5113C44.4906 19.6284 44.3734 19.6574 44.3152 19.7455H38.272C38.3306 19.248 38.3602 18.4563 39.0345 18.2516C39.3572 18.2806 39.5331 17.9293 39.7385 17.7536C40.6187 14.8233 41.3185 12.2571 41.9928 9.23874L42.0186 9.13006C41.9305 8.74919 41.4615 8.544 41.3152 8.2217L41.5792 7.0229H47.8349C47.7176 7.54992 47.629 8.25075 47.0719 8.48545C46.7201 8.57352 46.3384 8.8368 46.2211 9.18861L45.459 12.2735ZM69.4397 7.02243L69.3088 7.47871C69.11 8.10318 69.458 8.38145 69.8988 8.76231C69.4875 10.6666 68.9866 12.6365 68.3995 14.4528C67.9014 11.991 67.4315 9.48375 66.933 7.02243H62.1105L61.8469 8.22123C61.9909 8.53651 62.4416 8.74076 62.5429 9.10663L60.3035 17.5297C60.1572 17.9105 59.775 18.2623 59.3942 18.3209C58.8961 18.6137 58.778 19.2054 58.6898 19.7328H62.4003L62.602 19.2883C63.0231 18.2675 61.741 18.3214 61.9168 17.5297L63.6774 11.2002L63.8237 11.3464C64.234 14.1886 64.7039 16.9731 65.3192 19.7277H68.5463L71.5093 9.17784C71.6556 8.79744 71.9928 8.56415 72.3741 8.50559C72.9312 8.27136 73.0344 7.51994 73.1225 7.02196L69.4397 7.02243Z" fill="#265398"></path><path fill-rule="evenodd" clip-rule="evenodd" d="M23.5483 19.7092L22.9419 0.0078125H20.6726L20.5262 1.64323C20.5262 1.64323 20.4864 1.95616 21.1251 2.18009C21.1251 2.18009 21.6504 2.32203 21.6893 3.16434L22.2385 19.7092H23.5483Z" fill="#B81F25"></path><path fill-rule="evenodd" clip-rule="evenodd" d="M25.2335 0.0078125L25.8399 19.7092H24.5296L23.91 0.0078125H25.2335Z" fill="#265398"></path></svg>